<svg width="364" height="704" viewBox="0 0 364 704" fill="none" xmlns="http://www.w3.org/2000/svg">
<g filter="url(#filter0_f_2122_841)">
<rect x="320.948" y="471.242" width="9.15855" height="9.15855" rx="1" transform="rotate(-180 320.948 471.242)" fill="#00B068"/>
<rect x="291.183" y="358.152" width="9.15855" height="9.15855" rx="1" transform="rotate(-180 291.183 358.152)" fill="#00B068"/>
<rect x="252.901" y="414.381" width="4.57928" height="4.57928" rx="1" transform="rotate(-180 252.901 414.381)" fill="#00B068"/>
<rect x="350" y="432.664" width="4.57928" height="4.57928" rx="1" transform="rotate(-180 350 432.664)" fill="#00B068"/>
<rect x="224.957" y="480.258" width="9.15855" height="9.15855" rx="1" transform="rotate(-180 224.957 480.258)" fill="#00B068"/>
<rect x="184.999" y="393.648" width="4.57928" height="4.57928" rx="1" transform="rotate(-180 184.999 393.648)" fill="#00B068"/>
<rect x="293.16" y="132.16" width="10.1602" height="10.1602" rx="1" transform="rotate(-180 293.16 132.16)" fill="#00B068"/>
<rect x="252.671" y="21.1592" width="10.1602" height="10.1602" rx="1" transform="rotate(-180 252.671 21.1592)" fill="#00B068"/>
<rect x="340.671" y="173.24" width="15.2404" height="15.2404" rx="1" transform="rotate(-180 340.671 173.24)" fill="#00B068"/>
<rect x="216.671" y="79.0801" width="5.08012" height="5.08012" rx="1" transform="rotate(-180 216.671 79.0801)" fill="#00B068"/>
<rect x="357.671" y="99.3613" width="5.08012" height="5.08012" rx="1" transform="rotate(-180 357.671 99.3613)" fill="#00B068"/>
<rect x="124.08" y="244.427" width="5.08012" height="5.08012" rx="1" transform="rotate(-180 124.08 244.427)" fill="#00B068"/>
<rect x="11.0801" y="275.427" width="5.08012" height="5.08012" rx="1" transform="rotate(-180 11.0801 275.427)" fill="#00B068"/>
<rect x="185.671" y="152.16" width="10.1602" height="10.1602" rx="1" transform="rotate(-180 185.671 152.16)" fill="#00B068"/>
<rect x="144.671" y="56.0801" width="5.08012" height="5.08012" rx="1" transform="rotate(-180 144.671 56.0801)" fill="#00B068"/>
</g>
<defs>
<filter id="filter0_f_2122_841" x="0" y="-6" width="364" height="716" filterUnits="userSpaceOnUse" color-interpolation-filters="sRGB">
<feFlood flood-opacity="0" result="BackgroundImageFix"/>
<feBlend mode="normal" in="SourceGraphic" in2="BackgroundImageFix" result="shape"/>
<feGaussianBlur stdDeviation="3" result="effect1_foregroundBlur_2122_841"/>
</filter>
</defs>
</svg>
